<?xml version="1.0" encoding="UTF-8"?>
<svg width="300" height="400" version="1.1" xmlns="http://www.w3.org/2000/svg">
 <path d="m286.84 347.95c-19.265 18.659-50.322 33.658-75.82 18.355-24.527-15.806-26.088-50.149-16.57-75.059 14.499-37.96 35.018-73.374 48.909-111.63 12.955-32.776 24.167-71.502 7.0641-104.95-17.637-38.252-66.447-57.43-105.39-41.408-37.572 13.606-60.681 56.572-51.492 95.419 8.6833 39.391 43.822 69.649 43.163 111.63 0.15092 34.17-33.64 62.825-67.321 57.338-34.413-3.6231-59.55-40.741-50.47-74.039 6.9735-33.23 45.337-54.717 77.271-43.005 23.609 7.5743 40.445 30.88 40.491 55.658" fill="none" stroke="#000" stroke-width="25"/>
</svg>