<svg xmlns="http://www.w3.org/2000/svg" viewBox="0 0 425.25 381.24"><defs><style>.cls-1{fill:#fbc44a;}.cls-2{fill:#24396a;}</style></defs><g id="Layer_2" data-name="Layer 2"><g id="Layer_1-2" data-name="Layer 1"><path class="cls-1" d="M41,50l17.61.12q8.73.07,14.11,3.84T78,66.23a16.27,16.27,0,0,1-2.7,9.42,15.59,15.59,0,0,1-7,5.57A24.71,24.71,0,0,1,58.66,83l-5.18,0-.12,15.25-12.72-.1ZM58.14,72.89a7.75,7.75,0,0,0,5.56-1.73,6.69,6.69,0,0,0,1.89-5,5.2,5.2,0,0,0-1.93-4.53,9.86,9.86,0,0,0-5.73-1.45l-4.29,0-.09,12.73Z"/><path class="cls-1" d="M93.44,81.88,79.17,50.25l13.62.1,3.47,10.09,2,6c.24.65.49,1.36.76,2.15s.54,1.66.83,2.6h.3q1.13-3.32,2.34-6.42c.15-.44.65-1.87,1.51-4.28l3.63-10,13.31.1L106.17,82l-.12,16.57-12.73-.09Z"/><path class="cls-2" d="M125.49,50.59l12.73.1L138,88.13l18.2.13-.08,10.66-30.93-.23Z"/><path class="cls-2" d="M164.71,50.88l31.08.23-.08,10.65-18.35-.13-.05,7.55,15.68.11L192.92,80l-15.69-.12-.07,8.59,19.1.14-.08,10.65L164.36,99Z"/><path class="cls-2" d="M205.86,51.18l13,.1,10.5,21.53,4.51,10.84h.29c0-.54-.16-1.53-.35-3a135.8,135.8,0,0,1-1.14-15.4l.1-13.91,12.14.09-.35,48.1-13-.1-10.5-21.61L216.54,67.1h-.29l.41,3.93a120.41,120.41,0,0,1,1.08,14.44l-.1,13.91-12.14-.09Z"/><path class="cls-2" d="M255.58,51.54l14.21.11q11.54.08,18.09,5.9t6.45,18.11q-.09,12.28-6.61,18.23t-17.54,5.86l-15-.11Zm13.19,38q5.85,0,9.16-3t3.38-10.93q0-7.77-3.18-10.72t-9.16-3h-.74L268,89.52Z"/><path class="cls-2" d="M324.86,89.94l-13.47-.1L309,100l-13-.1,15-48,15.39.11,14.3,48.21-13.46-.1Zm-2.22-9.86-.79-3.33Q320.92,73,320,68.44l-1.58-7h-.3l-.46,2.07q-1.68,8.13-3,13.15L313.76,80Z"/><path class="cls-2" d="M371.11,100.49,362.94,84.3l-4.88,0-.12,16.13-12.73-.09.35-48.1,18.21.14q8.66.06,13.92,3.69t5.2,12a16.26,16.26,0,0,1-2.13,8.42A14.78,14.78,0,0,1,375,81.87l10.3,18.72Zm-13-26.29,4.59,0a8.79,8.79,0,0,0,5.74-1.58,5.82,5.82,0,0,0,2-4.73c0-2-.6-3.44-1.86-4.26s-3.18-1.25-5.8-1.27l-4.58,0Z"/><path class="cls-2" d="M404.19,15.54,36.5,0a22,22,0,0,0-22.9,21L0,342.8a22,22,0,0,0,21,22.89l367.7,15.53a22,22,0,0,0,22.89-21L425.23,38.44A22,22,0,0,0,404.19,15.54ZM380.74,352.35l-341,.32a12,12,0,0,1-12-12l-.28-298a12,12,0,0,1,12-12l341-.32a12,12,0,0,1,12,12l.28,298A12,12,0,0,1,380.74,352.35Z"/><rect class="cls-2" x="67.07" y="120.66" width="57.99" height="59.93" rx="12"/><rect class="cls-2" x="142.2" y="121.64" width="57.99" height="59.93" rx="12"/><rect class="cls-1" x="217.38" y="121.48" width="57.99" height="59.93" rx="12"/><rect class="cls-2" x="292.51" y="122.47" width="57.99" height="59.93" rx="12"/><rect class="cls-1" x="68.41" y="193.7" width="57.99" height="59.93" rx="12"/><rect class="cls-2" x="143.54" y="194.68" width="57.99" height="59.93" rx="12"/><rect class="cls-2" x="218.73" y="194.52" width="57.99" height="59.93" rx="12"/><rect class="cls-2" x="293.85" y="195.5" width="57.99" height="59.93" rx="12"/><rect class="cls-2" x="140.91" y="269.86" width="57.99" height="59.93" rx="12"/><rect class="cls-2" x="216.09" y="269.7" width="57.99" height="59.93" rx="12"/><rect class="cls-1" x="291.22" y="270.68" width="57.99" height="59.93" rx="12"/></g></g></svg>
